# Blender v2.82 (sub 7) OBJ File: 'Tanks.blend'
# www.blender.org
mtllib road4.mtl
o road4_Plane.001
v -4.867273 0.125000 4.867271
v 4.867273 0.125000 4.867271
v -4.867273 0.125000 -4.867271
v 4.867273 0.125000 -4.867271
v -4.867273 0.000000 4.867271
v 4.867272 0.000000 4.867271
v -4.867273 0.000000 -4.867271
v 4.867272 0.000000 -4.867271
v -4.867273 0.125000 -3.458514
v -4.867273 0.125000 3.458514
v -3.458514 0.125000 4.867271
v 3.458514 0.125000 4.867271
v 4.867273 0.125000 3.458521
v 4.867273 0.125000 -3.458506
v 3.458514 0.125000 -4.867271
v -3.458514 0.125000 -4.867271
v -3.458514 0.125000 3.458514
v 3.458514 0.125000 3.458521
v -3.458514 0.125000 -3.458514
v 3.458515 0.125000 -3.458506
v -4.867273 0.250000 3.458514
v -4.867273 0.250000 4.867271
v 3.458514 0.250000 4.867271
v 4.867273 0.250000 4.867271
v 4.867273 0.250000 -3.458506
v 4.867273 0.250000 -4.867271
v -3.458514 0.250000 -4.867271
v -4.867273 0.250000 -4.867271
v -4.867273 0.250000 -3.458514
v -3.458514 0.250000 4.867271
v 4.867273 0.250000 3.458521
v 3.458514 0.250000 -4.867271
v 3.458514 0.250000 3.458521
v -3.458514 0.250000 3.458514
v 3.458515 0.250000 -3.458506
v -3.458514 0.250000 -3.458514
vt 0.687500 0.937500
vt 0.687500 0.937500
vt 0.687500 0.937500
vt 0.687500 0.937500
vt 0.812500 0.937500
vt 0.812500 0.937500
vt 0.812500 0.937500
vt 0.812500 0.937500
vt 0.812500 0.937500
vt 0.812500 0.937500
vt 0.812500 0.937500
vt 0.812500 0.937500
vt 0.812500 0.937500
vt 0.812500 0.937500
vt 0.812500 0.937500
vt 0.812500 0.937500
vt 0.812500 0.937500
vt 0.812500 0.937500
vt 0.812500 0.937500
vt 0.812500 0.937500
vt 0.687500 0.937500
vt 0.687500 0.937500
vt 0.687500 0.937500
vt 0.687500 0.937500
vt 0.687500 0.937500
vt 0.687500 0.937500
vt 0.687500 0.937500
vt 0.687500 0.937500
vt 0.687500 0.937500
vt 0.687500 0.937500
vt 0.687500 0.937500
vt 0.687500 0.937500
vt 0.687500 0.937500
vt 0.687500 0.937500
vt 0.687500 0.937500
vt 0.687500 0.937500
vt 0.687500 0.937500
vt 0.687500 0.937500
vt 0.687500 0.937500
vt 0.687500 0.937500
vt 0.812500 0.937500
vt 0.812500 0.937500
vt 0.812500 0.937500
vt 0.812500 0.937500
vt 0.687500 0.937500
vt 0.687500 0.937500
vt 0.687500 0.937500
vt 0.687500 0.937500
vt 0.687500 0.937500
vt 0.687500 0.937500
vt 0.687500 0.937500
vt 0.687500 0.937500
vn 0.0000 0.0000 -1.0000
vn 0.0000 -1.0000 0.0000
vn 0.0000 0.0000 1.0000
vn 1.0000 0.0000 0.0000
vn -1.0000 0.0000 0.0000
vn 0.0000 1.0000 0.0000
usemtl Material.001
s off
f 3/1/1 28/2/1 27/3/1 16/4/1
f 5/5/2 7/6/2 8/7/2 6/8/2
f 4/9/1 8/7/1 7/6/1 3/10/1 16/11/1 15/12/1
f 1/13/3 5/5/3 6/8/3 2/14/3 12/15/3 11/16/3
f 2/14/4 6/8/4 8/7/4 4/9/4 14/17/4 13/18/4
f 3/10/5 7/6/5 5/5/5 1/13/5 10/19/5 9/20/5
f 4/21/4 26/22/4 25/23/4 14/24/4
f 29/25/6 36/26/6 27/3/6 28/2/6
f 19/27/3 36/26/3 29/25/3 9/28/3
f 35/29/6 25/23/6 26/22/6 32/30/6
f 22/31/6 30/32/6 34/33/6 21/34/6
f 15/35/1 32/30/1 26/22/1 4/21/1
f 20/36/5 35/29/5 32/30/5 15/35/5
f 23/37/6 24/38/6 31/39/6 33/40/6
f 20/41/6 15/12/6 16/11/6 19/42/6 9/20/6 10/19/6 17/43/6 11/16/6 12/15/6 18/44/6 13/18/6 14/17/6
f 17/45/4 34/33/4 30/32/4 11/46/4
f 9/28/5 29/25/5 28/2/5 3/1/5
f 12/47/5 23/37/5 33/40/5 18/48/5
f 18/48/1 33/40/1 31/39/1 13/49/1
f 10/50/1 21/34/1 34/33/1 17/45/1
f 11/46/3 30/32/3 22/31/3 1/51/3
f 1/51/5 22/31/5 21/34/5 10/50/5
f 16/4/4 27/3/4 36/26/4 19/27/4
f 14/24/3 25/23/3 35/29/3 20/36/3
f 2/52/3 24/38/3 23/37/3 12/47/3
f 13/49/4 31/39/4 24/38/4 2/52/4
