# Blender v2.82 (sub 7) OBJ File: 'Tanks.blend'
# www.blender.org
mtllib road3.mtl
o road3_Plane.002
v 1.278767 0.125000 -0.265870
v -1.278767 0.125000 -0.265870
v 1.278767 0.125000 0.265870
v -1.278767 0.125000 0.265870
v -4.867273 0.125000 4.867271
v 4.867273 0.125000 4.867271
v -4.867273 0.125000 -4.867271
v 4.867273 0.125000 -4.867271
v -4.867273 0.000000 4.867271
v 4.867272 0.000000 4.867271
v -4.867273 0.000000 -4.867271
v 4.867272 0.000000 -4.867271
v -4.867273 0.125000 -3.458514
v -4.867273 0.125000 3.458514
v 4.867273 0.125000 4.867271
v 4.867273 0.125000 3.458521
v 4.867273 0.125000 -3.458506
v 3.458514 0.125000 -4.867271
v -3.458514 0.125000 -4.867271
v 4.867273 0.125000 3.458514
v -3.458514 0.125000 -3.458514
v 3.458515 0.125000 -3.458506
v -4.867273 0.250000 3.458514
v -4.867273 0.250000 4.867271
v 4.867273 0.250000 -3.458506
v 4.867273 0.250000 -4.867271
v -3.458514 0.250000 -4.867271
v -4.867273 0.250000 -4.867271
v -4.867273 0.250000 -3.458514
v 4.867273 0.250000 4.867271
v 3.458514 0.250000 -4.867271
v 4.867273 0.250000 3.458514
v 3.458515 0.250000 -3.458506
v -3.458514 0.250000 -3.458514
v 1.278767 0.125000 -0.265870
v -1.278767 0.125000 -0.265870
v 2.500000 0.125000 -0.000000
v -2.500000 0.125000 0.000000
v 2.500000 0.125000 -0.000000
v -2.500000 0.125000 0.000000
v 1.278767 0.125000 -0.000000
v -1.278767 0.125000 0.000000
v 1.278767 0.125000 0.265870
v -1.278767 0.125000 0.265870
v 4.867273 0.125000 3.458521
v 3.458514 0.125000 3.458521
v -0.265869 0.125000 -0.265870
v -0.265869 0.125000 -0.265870
v 0.265869 0.125000 0.265869
vt 0.687500 0.687500
vt 0.687500 0.687500
vt 0.687500 0.687500
vt 0.687500 0.687500
vt 0.687500 0.937500
vt 0.687500 0.937500
vt 0.687500 0.937500
vt 0.687500 0.937500
vt 0.812500 0.937500
vt 0.812500 0.937500
vt 0.812500 0.937500
vt 0.812500 0.937500
vt 0.812500 0.937500
vt 0.812500 0.937500
vt 0.812500 0.937500
vt 0.812500 0.937500
vt 0.812500 0.937500
vt 0.812500 0.937500
vt 0.812500 0.937500
vt 0.812500 0.937500
vt 0.812500 0.937500
vt 0.812500 0.937500
vt 0.687500 0.937500
vt 0.687500 0.937500
vt 0.687500 0.937500
vt 0.687500 0.937500
vt 0.687500 0.937500
vt 0.687500 0.937500
vt 0.687500 0.937500
vt 0.687500 0.937500
vt 0.687500 0.937500
vt 0.687500 0.937500
vt 0.687500 0.937500
vt 0.687500 0.937500
vt 0.687500 0.937500
vt 0.687500 0.937500
vt 0.687500 0.937500
vt 0.687500 0.937500
vt 0.812500 0.937500
vt 0.687500 0.937500
vt 0.687500 0.937500
vt 0.687500 0.937500
vt 0.687500 0.937500
vt 0.812500 0.937500
vt 0.812500 0.937500
vt 0.812500 0.937500
vt 0.812500 0.937500
vt 0.687500 0.687500
vt 0.687500 0.687500
vt 0.687500 0.687500
vt 0.687500 0.687500
vt 0.687500 0.687500
vt 0.687500 0.687500
vt 0.687500 0.687500
vt 0.687500 0.687500
vn 0.0000 1.0000 0.0000
vn 0.0000 0.0000 -1.0000
vn 0.0000 -1.0000 0.0000
vn 1.0000 0.0000 0.0000
vn -1.0000 0.0000 0.0000
vn 0.0000 0.0000 1.0000
usemtl Material.001
s off
f 1/1/1 2/2/1 4/3/1 3/4/1
f 7/5/2 28/6/2 27/7/2 19/8/2
f 9/9/3 11/10/3 12/11/3 10/12/3
f 8/13/2 12/11/2 11/10/2 7/14/2 19/15/2 18/16/2
f 6/17/4 10/12/4 12/11/4 8/13/4 17/18/4 16/19/4
f 7/14/5 11/10/5 9/9/5 5/20/5 14/21/5 13/22/5
f 8/23/4 26/24/4 25/25/4 17/26/4
f 29/27/1 34/28/1 27/7/1 28/6/1
f 21/29/6 34/28/6 29/27/6 13/30/6
f 33/31/1 25/25/1 26/24/1 31/32/1
f 24/33/1 30/34/1 32/35/1 23/36/1
f 18/37/2 31/32/2 26/24/2 8/23/2
f 22/38/5 33/31/5 31/32/5 18/37/5
f 10/12/6 15/39/6 5/20/6 9/9/6
f 20/40/4 32/35/4 30/34/4 15/41/4
f 13/30/5 29/27/5 28/6/5 7/5/5
f 14/42/2 23/36/2 32/35/2 20/40/2
f 15/41/6 30/34/6 24/33/6 5/43/6
f 5/43/5 24/33/5 23/36/5 14/42/5
f 19/8/4 27/7/4 34/28/4 21/29/4
f 17/26/6 25/25/6 33/31/6 22/38/6
f 15/39/1 8/13/1 1/44/1 3/45/1
f 8/13/1 7/14/1 2/46/1 1/44/1
f 7/14/1 5/20/1 4/47/1 2/46/1
f 4/47/1 5/20/1 15/39/1 3/45/1
f 41/48/1 35/49/1 48/50/1 36/51/1 42/52/1 44/53/1 49/54/1 43/55/1
l 39 37
l 38 40
l 46 45
l 35 47
