# Blender v2.82 (sub 7) OBJ File: 'Tanks.blend'
# www.blender.org
mtllib bush3.mtl
o bush3_Icosphere.009
v -0.335444 -0.274818 0.005177
v 0.288040 0.013905 0.259735
v -0.384877 0.013904 0.676808
v -0.989482 0.013907 0.165707
v -0.690222 0.013904 -0.567243
v 0.099328 0.013905 -0.509124
v 0.019333 0.481079 0.577597
v -0.770216 0.481079 0.519478
v -0.958929 0.481079 -0.249381
v -0.286012 0.481079 -0.666454
v 0.318593 0.481077 -0.155353
v -0.335444 0.769801 0.005177
v -0.364500 -0.196813 0.399949
v 0.031028 -0.196813 0.154802
v 0.001975 -0.027106 0.549577
v 0.286580 -0.027105 -0.147495
v -0.079894 -0.196813 -0.297119
v -0.719877 -0.196812 0.099534
v -0.748935 -0.027105 0.494308
v -0.543976 -0.196813 -0.331281
v -0.928412 -0.027105 -0.236924
v -0.288425 -0.027106 -0.633581
v 0.415465 0.247492 0.060445
v 0.304543 0.247492 -0.391478
v -0.155967 0.247492 0.736414
v 0.239567 0.247492 0.491265
v -0.975432 0.247492 0.401832
v -0.620054 0.247492 0.702254
v -0.910455 0.247492 -0.480911
v -1.086354 0.247492 -0.050090
v -0.050835 0.247492 -0.691900
v -0.514922 0.247492 -0.726059
v 0.257523 0.522089 0.247278
v -0.382464 0.522090 0.643935
v -0.957469 0.522089 0.157850
v -0.672863 0.522090 -0.539223
v 0.078046 0.522089 -0.483954
v -0.126913 0.691797 0.341635
v 0.048988 0.691795 -0.089180
v -0.590995 0.691797 0.307474
v -0.701917 0.691797 -0.144447
v -0.306389 0.691797 -0.389595
v 0.356587 -0.345339 0.005184
v 1.074460 -0.017634 0.454469
v 0.082389 -0.017634 0.732149
v -0.530752 -0.017631 0.005184
v 0.082389 -0.017634 -0.721781
v 1.074460 -0.017634 -0.444101
v 0.630785 0.512617 0.732149
v -0.361286 0.512617 0.454469
v -0.361286 0.512617 -0.444101
v 0.630785 0.512617 -0.721781
v 1.243925 0.512615 0.005184
v 0.356587 0.840322 0.005184
v 0.195419 -0.256802 0.432480
v 0.778539 -0.256802 0.269265
v 0.617373 -0.064182 0.696565
v 1.200494 -0.064181 0.005184
v 0.778539 -0.256802 -0.258898
v -0.164977 -0.256801 0.005184
v -0.326149 -0.064181 0.432481
v 0.195419 -0.256802 -0.422112
v -0.326149 -0.064181 -0.422114
v 0.617373 -0.064182 -0.686198
v 1.300108 0.247492 0.269266
v 1.300108 0.247492 -0.258899
v 0.356587 0.247492 0.859784
v 0.939715 0.247492 0.696570
v -0.586935 0.247492 0.269266
v -0.226541 0.247492 0.696570
v -0.226541 0.247492 -0.686202
v -0.586935 0.247492 -0.258899
v 0.939715 0.247492 -0.686202
v 0.356587 0.247492 -0.849417
v 1.039323 0.559164 0.432481
v 0.095801 0.559165 0.696565
v -0.487320 0.559164 0.005184
v 0.095801 0.559165 -0.686198
v 1.039323 0.559164 -0.422114
v 0.517755 0.751786 0.432480
v 0.878151 0.751784 0.005184
v -0.065366 0.751785 0.269265
v -0.065366 0.751785 -0.258898
v 0.517755 0.751786 -0.422112
v -0.021145 0.272938 -0.010322
v -0.213452 0.511782 -0.533186
v 0.416702 0.511782 -0.354790
v 0.441765 0.511784 0.299652
v -0.172903 0.511782 0.525717
v -0.577845 0.511782 0.010993
v 0.130613 0.898251 -0.546361
v 0.535554 0.898251 -0.031637
v 0.171162 0.898251 0.512542
v -0.458992 0.898251 0.334146
v -0.484056 0.898249 -0.320296
v -0.021145 1.137095 -0.010322
v 0.236213 0.337467 -0.212794
v -0.134180 0.337467 -0.317651
v 0.123179 0.477856 -0.520127
v -0.461398 0.477857 -0.305124
v -0.348363 0.337467 0.002206
v 0.250946 0.337468 0.171876
v 0.508307 0.477857 -0.030596
v -0.110345 0.337467 0.304751
v 0.161748 0.477857 0.486951
v -0.437565 0.477856 0.317282
v -0.406274 0.705016 -0.499852
v -0.620458 0.705016 -0.179993
v 0.325416 0.705016 -0.527872
v -0.044980 0.705016 -0.632733
v 0.578167 0.705016 0.159349
v 0.563438 0.705016 -0.225325
v 0.002689 0.705016 0.612089
v 0.363983 0.705016 0.479208
v -0.605728 0.705016 0.204681
v -0.367707 0.705016 0.507228
v -0.204038 0.932176 -0.507596
v 0.395275 0.932177 -0.337926
v 0.419108 0.932176 0.284480
v -0.165470 0.932177 0.499482
v -0.550598 0.932176 0.009951
v 0.068055 1.072566 -0.325396
v -0.293237 1.072565 -0.192520
v 0.306072 1.072566 -0.022850
v 0.091889 1.072566 0.297007
v -0.278503 1.072566 0.192150
vt 0.818181 0.000000
vt 0.772726 0.078731
vt 0.863635 0.078731
vt 0.727272 0.157461
vt 0.681818 0.078731
vt 0.636363 0.157461
vt 0.090909 0.000000
vt 0.045454 0.078731
vt 0.136363 0.078731
vt 0.272727 0.000000
vt 0.227273 0.078731
vt 0.318182 0.078731
vt 0.454545 0.000000
vt 0.409090 0.078731
vt 0.500000 0.078731
vt 0.681818 0.236191
vt 0.909090 0.157461
vt 0.818181 0.157461
vt 0.863635 0.236191
vt 0.181818 0.157461
vt 0.090909 0.157461
vt 0.136363 0.236191
vt 0.363636 0.157461
vt 0.272727 0.157461
vt 0.318182 0.236191
vt 0.545454 0.157461
vt 0.454545 0.157461
vt 0.500000 0.236191
vt 0.772726 0.236191
vt 0.954545 0.236191
vt 0.227273 0.236191
vt 0.409090 0.236191
vt 0.590909 0.236191
vt 0.818181 0.314921
vt 0.727272 0.314921
vt 0.772726 0.393651
vt 1.000000 0.314921
vt 0.909091 0.314921
vt 0.954545 0.393651
vt 0.272727 0.314921
vt 0.181818 0.314921
vt 0.227273 0.393651
vt 0.454545 0.314921
vt 0.363636 0.314921
vt 0.409090 0.393651
vt 0.636363 0.314921
vt 0.545454 0.314921
vt 0.590909 0.393651
vt 0.500000 0.393651
vt 0.545454 0.472382
vt 0.318182 0.393651
vt 0.363636 0.472382
vt 0.136363 0.393651
vt 0.181818 0.472382
vt 0.090909 0.314921
vt 0.863635 0.393651
vt 0.909090 0.472382
vt 0.681818 0.393651
vt 0.727272 0.472382
vt 0.045454 0.236191
vt 0.000000 0.157461
vt 0.590909 0.078731
vt 0.636363 0.000000
vt 0.818181 0.000000
vt 0.772726 0.078731
vt 0.863635 0.078731
vt 0.727272 0.157461
vt 0.681818 0.078731
vt 0.636363 0.157461
vt 0.090909 0.000000
vt 0.045454 0.078731
vt 0.136363 0.078731
vt 0.272727 0.000000
vt 0.227273 0.078731
vt 0.318182 0.078731
vt 0.454545 0.000000
vt 0.409090 0.078731
vt 0.500000 0.078731
vt 0.681818 0.236191
vt 0.909090 0.157461
vt 0.818181 0.157461
vt 0.863635 0.236191
vt 0.181818 0.157461
vt 0.090909 0.157461
vt 0.136363 0.236191
vt 0.363636 0.157461
vt 0.272727 0.157461
vt 0.318182 0.236191
vt 0.545454 0.157461
vt 0.454545 0.157461
vt 0.500000 0.236191
vt 0.772726 0.236191
vt 0.954545 0.236191
vt 0.227273 0.236191
vt 0.409090 0.236191
vt 0.590909 0.236191
vt 0.818181 0.314921
vt 0.727272 0.314921
vt 0.772726 0.393651
vt 1.000000 0.314921
vt 0.909091 0.314921
vt 0.954545 0.393651
vt 0.272727 0.314921
vt 0.181818 0.314921
vt 0.227273 0.393651
vt 0.454545 0.314921
vt 0.363636 0.314921
vt 0.409090 0.393651
vt 0.636363 0.314921
vt 0.545454 0.314921
vt 0.590909 0.393651
vt 0.500000 0.393651
vt 0.545454 0.472382
vt 0.318182 0.393651
vt 0.363636 0.472382
vt 0.136363 0.393651
vt 0.181818 0.472382
vt 0.090909 0.314921
vt 0.863635 0.393651
vt 0.909090 0.472382
vt 0.681818 0.393651
vt 0.727272 0.472382
vt 0.045454 0.236191
vt 0.000000 0.157461
vt 0.590909 0.078731
vt 0.636363 0.000000
vt 0.818181 0.000000
vt 0.772726 0.078731
vt 0.863635 0.078731
vt 0.727272 0.157461
vt 0.681818 0.078731
vt 0.636363 0.157461
vt 0.090909 0.000000
vt 0.045454 0.078731
vt 0.136363 0.078731
vt 0.272727 0.000000
vt 0.227273 0.078731
vt 0.318182 0.078731
vt 0.454545 0.000000
vt 0.409090 0.078731
vt 0.500000 0.078731
vt 0.681818 0.236191
vt 0.909090 0.157461
vt 0.818181 0.157461
vt 0.863635 0.236191
vt 0.181818 0.157461
vt 0.090909 0.157461
vt 0.136363 0.236191
vt 0.363636 0.157461
vt 0.272727 0.157461
vt 0.318182 0.236191
vt 0.545454 0.157461
vt 0.454545 0.157461
vt 0.500000 0.236191
vt 0.772726 0.236191
vt 0.954545 0.236191
vt 0.227273 0.236191
vt 0.409090 0.236191
vt 0.590909 0.236191
vt 0.818181 0.314921
vt 0.727272 0.314921
vt 0.772726 0.393651
vt 1.000000 0.314921
vt 0.909091 0.314921
vt 0.954545 0.393651
vt 0.272727 0.314921
vt 0.181818 0.314921
vt 0.227273 0.393651
vt 0.454545 0.314921
vt 0.363636 0.314921
vt 0.409090 0.393651
vt 0.636363 0.314921
vt 0.545454 0.314921
vt 0.590909 0.393651
vt 0.500000 0.393651
vt 0.545454 0.472382
vt 0.318182 0.393651
vt 0.363636 0.472382
vt 0.136363 0.393651
vt 0.181818 0.472382
vt 0.090909 0.314921
vt 0.863635 0.393651
vt 0.909090 0.472382
vt 0.681818 0.393651
vt 0.727272 0.472382
vt 0.045454 0.236191
vt 0.000000 0.157461
vt 0.590909 0.078731
vt 0.636363 0.000000
vn 0.1247 -0.9716 0.2012
vn 0.6132 -0.7862 0.0770
vn -0.1528 -0.9716 0.1807
vn -0.2191 -0.9716 -0.0895
vn 0.0174 -0.9716 -0.2360
vn 0.8918 -0.4505 0.0422
vn 0.2355 -0.4505 0.8612
vn -0.7463 -0.4505 0.4901
vn -0.6967 -0.4505 -0.5583
vn 0.3157 -0.4505 -0.8351
vn 0.9108 -0.1796 0.3719
vn -0.0722 -0.1796 0.9811
vn -0.9554 -0.1796 0.2345
vn -0.5182 -0.1796 -0.8362
vn 0.6351 -0.1796 -0.7513
vn 0.4508 0.7862 0.4227
vn -0.2627 0.7862 0.5594
vn -0.6132 0.7862 -0.0770
vn -0.1163 0.7862 -0.6069
vn 0.5413 0.7862 -0.2981
vn 0.1528 0.9716 -0.1807
vn 0.3023 0.8836 -0.3576
vn 0.2039 0.7862 -0.5834
vn -0.1247 0.9716 -0.2012
vn -0.2467 0.8836 -0.3980
vn -0.4918 0.7862 -0.3742
vn -0.2298 0.9716 0.0564
vn -0.4547 0.8836 0.1116
vn -0.5078 0.7862 0.3521
vn -0.0174 0.9716 0.2360
vn -0.0344 0.8836 0.4670
vn 0.1780 0.7862 0.5918
vn 0.2191 0.9716 0.0895
vn 0.4335 0.8836 0.1770
vn 0.6178 0.7862 0.0136
vn 0.7463 0.4505 -0.4901
vn 0.6224 0.2654 -0.7363
vn 0.3590 0.4505 -0.8174
vn -0.2355 0.4505 -0.8612
vn -0.5079 0.2654 -0.8195
vn -0.6665 0.4505 -0.5940
vn -0.8918 0.4505 -0.0422
vn -0.9363 0.2654 0.2298
vn -0.7709 0.4505 0.4503
vn -0.3157 0.4505 0.8351
vn -0.0708 0.2654 0.9615
vn 0.1900 0.4505 0.8723
vn 0.6967 0.4505 0.5583
vn 0.8926 0.2654 0.3644
vn 0.8883 0.4505 0.0889
vn 0.0722 0.1796 -0.9811
vn 0.0708 -0.2654 -0.9615
vn -0.1900 -0.4505 -0.8723
vn -0.9108 0.1796 -0.3719
vn -0.8926 -0.2654 -0.3644
vn -0.8883 -0.4505 -0.0889
vn -0.6351 0.1796 0.7513
vn -0.6224 -0.2654 0.7363
vn -0.3590 -0.4505 0.8174
vn 0.5182 0.1796 0.8362
vn 0.5079 -0.2654 0.8195
vn 0.6665 -0.4505 0.5940
vn 0.9554 0.1796 -0.2345
vn 0.9363 -0.2654 -0.2298
vn 0.7709 -0.4505 -0.4503
vn 0.2627 -0.7862 -0.5594
vn 0.0344 -0.8836 -0.4670
vn -0.1780 -0.7862 -0.5918
vn -0.4508 -0.7862 -0.4227
vn -0.4335 -0.8836 -0.1770
vn -0.6178 -0.7862 -0.0136
vn -0.5413 -0.7862 0.2981
vn -0.3023 -0.8836 0.3576
vn -0.2039 -0.7862 0.5834
vn 0.5078 -0.7862 -0.3521
vn 0.4547 -0.8836 -0.1116
vn 0.2298 -0.9716 -0.0564
vn 0.1163 -0.7862 0.6069
vn 0.2467 -0.8836 0.3980
vn 0.4918 -0.7862 0.3742
vn 0.0630 -0.9723 0.2252
vn 0.5200 -0.8223 0.2311
vn -0.1657 -0.9762 0.1398
vn -0.1657 -0.9762 -0.1398
vn 0.0630 -0.9723 -0.2252
vn 0.8188 -0.5003 0.2815
vn 0.0202 -0.4505 0.8925
vn -0.8019 -0.4983 0.3297
vn -0.4871 -0.4687 -0.7369
vn 0.4507 -0.4661 -0.7613
vn 0.7495 -0.1963 0.6322
vn -0.2650 -0.1818 0.9469
vn -0.9783 -0.2073 0.0000
vn -0.2650 -0.1818 -0.9469
vn 0.7495 -0.1963 -0.6322
vn 0.2947 0.7980 0.5257
vn -0.3413 0.8020 0.4903
vn -0.5200 0.8223 -0.2311
vn 0.0274 0.7863 -0.6172
vn 0.5394 0.8250 -0.1684
vn 0.1657 0.9762 -0.1398
vn 0.3325 0.9004 -0.2805
vn 0.2947 0.7980 -0.5257
vn -0.0630 0.9723 -0.2252
vn -0.1250 0.8860 -0.4465
vn -0.3413 0.8020 -0.4903
vn -0.2054 0.9787 0.0000
vn -0.4153 0.9097 0.0000
vn -0.5200 0.8223 0.2311
vn -0.0630 0.9723 0.2252
vn -0.1250 0.8860 0.4465
vn 0.0274 0.7863 0.6172
vn 0.1657 0.9762 0.1398
vn 0.3325 0.9004 0.2805
vn 0.5394 0.8250 0.1684
vn 0.8019 0.4983 -0.3297
vn 0.7318 0.2891 -0.6172
vn 0.4871 0.4687 -0.7369
vn -0.0202 0.4505 -0.8925
vn -0.2596 0.2685 -0.9276
vn -0.4507 0.4661 -0.7613
vn -0.8188 0.5003 -0.2815
vn -0.9525 0.3044 0.0000
vn -0.8188 0.5003 0.2815
vn -0.4507 0.4661 0.7613
vn -0.2596 0.2685 0.9276
vn -0.0202 0.4505 0.8925
vn 0.4871 0.4687 0.7369
vn 0.7318 0.2891 0.6172
vn 0.8019 0.4983 0.3297
vn 0.2650 0.1818 -0.9469
vn 0.2596 -0.2685 -0.9276
vn 0.0202 -0.4505 -0.8925
vn -0.7495 0.1963 -0.6322
vn -0.7318 -0.2891 -0.6172
vn -0.8019 -0.4983 -0.3297
vn -0.7495 0.1963 0.6322
vn -0.7318 -0.2891 0.6172
vn -0.4871 -0.4687 0.7369
vn 0.2650 0.1818 0.9469
vn 0.2596 -0.2685 0.9276
vn 0.4507 -0.4661 0.7613
vn 0.9783 0.2073 0.0000
vn 0.9525 -0.3044 0.0000
vn 0.8188 -0.5003 -0.2815
vn 0.3413 -0.8020 -0.4903
vn 0.1250 -0.8860 -0.4465
vn -0.0274 -0.7863 -0.6172
vn -0.2947 -0.7980 -0.5257
vn -0.3325 -0.9004 -0.2805
vn -0.5394 -0.8250 -0.1684
vn -0.5394 -0.8250 0.1684
vn -0.3325 -0.9004 0.2805
vn -0.2947 -0.7980 0.5257
vn 0.5200 -0.8223 -0.2311
vn 0.4153 -0.9097 0.0000
vn 0.2054 -0.9787 0.0000
vn -0.0274 -0.7863 0.6172
vn 0.1250 -0.8860 0.4465
vn 0.3413 -0.8020 0.4903
vn 0.0645 -0.9716 -0.2277
vn -0.3566 -0.7862 -0.5047
vn 0.2365 -0.9716 -0.0091
vn 0.0817 -0.9716 0.2221
vn -0.1860 -0.9716 0.1463
vn -0.5702 -0.4505 -0.6869
vn 0.4771 -0.4505 -0.7546
vn 0.8651 -0.4505 0.2206
vn 0.0575 -0.4505 0.8909
vn -0.8295 -0.4505 0.3300
vn -0.3396 -0.1796 -0.9233
vn 0.7732 -0.1796 -0.6083
vn 0.8174 -0.1796 0.5474
vn -0.2680 -0.1796 0.9465
vn -0.9830 -0.1796 0.0376
vn 0.0081 0.7862 -0.6179
vn 0.5902 0.7862 -0.1832
vn 0.3566 0.7862 0.5047
vn -0.3698 0.7862 0.4951
vn -0.5852 0.7862 -0.1987
vn -0.2365 0.9716 0.0091
vn -0.4679 0.8836 0.0179
vn -0.5683 0.7862 0.2428
vn -0.0645 0.9716 0.2277
vn -0.1275 0.8836 0.4505
vn 0.0554 0.7862 0.6155
vn 0.1966 0.9716 0.1317
vn 0.3891 0.8836 0.2605
vn 0.6025 0.7862 0.1376
vn 0.1860 0.9716 -0.1463
vn 0.3680 0.8836 -0.2895
vn 0.3170 0.7862 -0.5305
vn -0.0817 0.9716 -0.2221
vn -0.1616 0.8836 -0.4395
vn -0.4066 0.7862 -0.4654
vn -0.8651 0.4505 -0.2206
vn -0.9634 0.2654 0.0369
vn -0.8457 0.4505 0.2861
vn -0.4771 0.4505 0.7546
vn -0.2626 0.2654 0.9277
vn 0.0108 0.4505 0.8927
vn 0.5702 0.4505 0.6870
vn 0.8011 0.2654 0.5364
vn 0.8523 0.4505 0.2656
vn 0.8295 0.4505 -0.3300
vn 0.7577 0.2654 -0.5961
vn 0.5160 0.4505 -0.7285
vn -0.0575 0.4505 -0.8909
vn -0.3328 0.2654 -0.9049
vn -0.5334 0.4505 -0.7159
vn -0.7732 0.1796 0.6083
vn -0.7577 -0.2654 0.5961
vn -0.5160 -0.4505 0.7285
vn 0.3396 0.1796 0.9233
vn 0.3328 -0.2654 0.9049
vn 0.5334 -0.4505 0.7159
vn 0.9830 0.1796 -0.0376
vn 0.9634 -0.2654 -0.0369
vn 0.8457 -0.4505 -0.2861
vn 0.2680 0.1796 -0.9465
vn 0.2626 -0.2654 -0.9277
vn -0.0108 -0.4505 -0.8927
vn -0.8174 0.1796 -0.5474
vn -0.8011 -0.2654 -0.5364
vn -0.8523 -0.4505 -0.2656
vn -0.5902 -0.7862 0.1832
vn -0.3680 -0.8836 0.2895
vn -0.3170 -0.7862 0.5305
vn -0.0081 -0.7862 0.6179
vn 0.1616 -0.8836 0.4395
vn 0.4066 -0.7862 0.4654
vn 0.5852 -0.7862 0.1987
vn 0.4679 -0.8836 -0.0179
vn 0.5683 -0.7862 -0.2428
vn -0.6025 -0.7862 -0.1376
vn -0.3891 -0.8836 -0.2605
vn -0.1966 -0.9716 -0.1317
vn 0.3698 -0.7862 -0.4951
vn 0.1275 -0.8836 -0.4505
vn -0.0554 -0.7862 -0.6155
usemtl Leaves
s off
f 1/1/1 14/2/1 13/3/1
f 2/4/2 14/5/2 16/6/2
f 1/7/3 13/8/3 18/9/3
f 1/10/4 18/11/4 20/12/4
f 1/13/5 20/14/5 17/15/5
f 2/4/6 16/6/6 23/16/6
f 3/17/7 15/18/7 25/19/7
f 4/20/8 19/21/8 27/22/8
f 5/23/9 21/24/9 29/25/9
f 6/26/10 22/27/10 31/28/10
f 2/4/11 23/16/11 26/29/11
f 3/17/12 25/19/12 28/30/12
f 4/20/13 27/22/13 30/31/13
f 5/23/14 29/25/14 32/32/14
f 6/26/15 31/28/15 24/33/15
f 7/34/16 33/35/16 38/36/16
f 8/37/17 34/38/17 40/39/17
f 9/40/18 35/41/18 41/42/18
f 10/43/19 36/44/19 42/45/19
f 11/46/20 37/47/20 39/48/20
f 39/48/21 42/49/21 12/50/21
f 39/48/22 37/47/22 42/49/22
f 37/47/23 10/43/23 42/49/23
f 42/45/24 41/51/24 12/52/24
f 42/45/25 36/44/25 41/51/25
f 36/44/26 9/40/26 41/51/26
f 41/42/27 40/53/27 12/54/27
f 41/42/28 35/41/28 40/53/28
f 35/41/29 8/55/29 40/53/29
f 40/39/30 38/56/30 12/57/30
f 40/39/31 34/38/31 38/56/31
f 34/38/32 7/34/32 38/56/32
f 38/36/33 39/58/33 12/59/33
f 38/36/34 33/35/34 39/58/34
f 33/35/35 11/46/35 39/58/35
f 24/33/36 37/47/36 11/46/36
f 24/33/37 31/28/37 37/47/37
f 31/28/38 10/43/38 37/47/38
f 32/32/39 36/44/39 10/43/39
f 32/32/40 29/25/40 36/44/40
f 29/25/41 9/40/41 36/44/41
f 30/31/42 35/41/42 9/40/42
f 30/31/43 27/22/43 35/41/43
f 27/22/44 8/55/44 35/41/44
f 28/30/45 34/38/45 8/37/45
f 28/30/46 25/19/46 34/38/46
f 25/19/47 7/34/47 34/38/47
f 26/29/48 33/35/48 7/34/48
f 26/29/49 23/16/49 33/35/49
f 23/16/50 11/46/50 33/35/50
f 31/28/51 32/32/51 10/43/51
f 31/28/52 22/27/52 32/32/52
f 22/27/53 5/23/53 32/32/53
f 29/25/54 30/31/54 9/40/54
f 29/25/55 21/24/55 30/31/55
f 21/24/56 4/20/56 30/31/56
f 27/22/57 28/60/57 8/55/57
f 27/22/58 19/21/58 28/60/58
f 19/21/59 3/61/59 28/60/59
f 25/19/60 26/29/60 7/34/60
f 25/19/61 15/18/61 26/29/61
f 15/18/62 2/4/62 26/29/62
f 23/16/63 24/33/63 11/46/63
f 23/16/64 16/6/64 24/33/64
f 16/6/65 6/26/65 24/33/65
f 17/15/66 22/27/66 6/26/66
f 17/15/67 20/14/67 22/27/67
f 20/14/68 5/23/68 22/27/68
f 20/12/69 21/24/69 5/23/69
f 20/12/70 18/11/70 21/24/70
f 18/11/71 4/20/71 21/24/71
f 18/9/72 19/21/72 4/20/72
f 18/9/73 13/8/73 19/21/73
f 13/8/74 3/61/74 19/21/74
f 16/6/75 17/62/75 6/26/75
f 16/6/76 14/5/76 17/62/76
f 14/5/77 1/63/77 17/62/77
f 13/3/78 15/18/78 3/17/78
f 13/3/79 14/2/79 15/18/79
f 14/2/80 2/4/80 15/18/80
f 43/64/81 56/65/81 55/66/81
f 44/67/82 56/68/82 58/69/82
f 43/70/83 55/71/83 60/72/83
f 43/73/84 60/74/84 62/75/84
f 43/76/85 62/77/85 59/78/85
f 44/67/86 58/69/86 65/79/86
f 45/80/87 57/81/87 67/82/87
f 46/83/88 61/84/88 69/85/88
f 47/86/89 63/87/89 71/88/89
f 48/89/90 64/90/90 73/91/90
f 44/67/91 65/79/91 68/92/91
f 45/80/92 67/82/92 70/93/92
f 46/83/93 69/85/93 72/94/93
f 47/86/94 71/88/94 74/95/94
f 48/89/95 73/91/95 66/96/95
f 49/97/96 75/98/96 80/99/96
f 50/100/97 76/101/97 82/102/97
f 51/103/98 77/104/98 83/105/98
f 52/106/99 78/107/99 84/108/99
f 53/109/100 79/110/100 81/111/100
f 81/111/101 84/112/101 54/113/101
f 81/111/102 79/110/102 84/112/102
f 79/110/103 52/106/103 84/112/103
f 84/108/104 83/114/104 54/115/104
f 84/108/105 78/107/105 83/114/105
f 78/107/106 51/103/106 83/114/106
f 83/105/107 82/116/107 54/117/107
f 83/105/108 77/104/108 82/116/108
f 77/104/109 50/118/109 82/116/109
f 82/102/110 80/119/110 54/120/110
f 82/102/111 76/101/111 80/119/111
f 76/101/112 49/97/112 80/119/112
f 80/99/113 81/121/113 54/122/113
f 80/99/114 75/98/114 81/121/114
f 75/98/115 53/109/115 81/121/115
f 66/96/116 79/110/116 53/109/116
f 66/96/117 73/91/117 79/110/117
f 73/91/118 52/106/118 79/110/118
f 74/95/119 78/107/119 52/106/119
f 74/95/120 71/88/120 78/107/120
f 71/88/121 51/103/121 78/107/121
f 72/94/122 77/104/122 51/103/122
f 72/94/123 69/85/123 77/104/123
f 69/85/124 50/118/124 77/104/124
f 70/93/125 76/101/125 50/100/125
f 70/93/126 67/82/126 76/101/126
f 67/82/127 49/97/127 76/101/127
f 68/92/128 75/98/128 49/97/128
f 68/92/129 65/79/129 75/98/129
f 65/79/130 53/109/130 75/98/130
f 73/91/131 74/95/131 52/106/131
f 73/91/132 64/90/132 74/95/132
f 64/90/133 47/86/133 74/95/133
f 71/88/134 72/94/134 51/103/134
f 71/88/135 63/87/135 72/94/135
f 63/87/136 46/83/136 72/94/136
f 69/85/137 70/123/137 50/118/137
f 69/85/138 61/84/138 70/123/138
f 61/84/139 45/124/139 70/123/139
f 67/82/140 68/92/140 49/97/140
f 67/82/141 57/81/141 68/92/141
f 57/81/142 44/67/142 68/92/142
f 65/79/143 66/96/143 53/109/143
f 65/79/144 58/69/144 66/96/144
f 58/69/145 48/89/145 66/96/145
f 59/78/146 64/90/146 48/89/146
f 59/78/147 62/77/147 64/90/147
f 62/77/148 47/86/148 64/90/148
f 62/75/149 63/87/149 47/86/149
f 62/75/150 60/74/150 63/87/150
f 60/74/151 46/83/151 63/87/151
f 60/72/152 61/84/152 46/83/152
f 60/72/153 55/71/153 61/84/153
f 55/71/154 45/124/154 61/84/154
f 58/69/155 59/125/155 48/89/155
f 58/69/156 56/68/156 59/125/156
f 56/68/157 43/126/157 59/125/157
f 55/66/158 57/81/158 45/80/158
f 55/66/159 56/65/159 57/81/159
f 56/65/160 44/67/160 57/81/160
f 85/127/161 98/128/161 97/129/161
f 86/130/162 98/131/162 100/132/162
f 85/133/163 97/134/163 102/135/163
f 85/136/164 102/137/164 104/138/164
f 85/139/165 104/140/165 101/141/165
f 86/130/166 100/132/166 107/142/166
f 87/143/167 99/144/167 109/145/167
f 88/146/168 103/147/168 111/148/168
f 89/149/169 105/150/169 113/151/169
f 90/152/170 106/153/170 115/154/170
f 86/130/171 107/142/171 110/155/171
f 87/143/172 109/145/172 112/156/172
f 88/146/173 111/148/173 114/157/173
f 89/149/174 113/151/174 116/158/174
f 90/152/175 115/154/175 108/159/175
f 91/160/176 117/161/176 122/162/176
f 92/163/177 118/164/177 124/165/177
f 93/166/178 119/167/178 125/168/178
f 94/169/179 120/170/179 126/171/179
f 95/172/180 121/173/180 123/174/180
f 123/174/181 126/175/181 96/176/181
f 123/174/182 121/173/182 126/175/182
f 121/173/183 94/169/183 126/175/183
f 126/171/184 125/177/184 96/178/184
f 126/171/185 120/170/185 125/177/185
f 120/170/186 93/166/186 125/177/186
f 125/168/187 124/179/187 96/180/187
f 125/168/188 119/167/188 124/179/188
f 119/167/189 92/181/189 124/179/189
f 124/165/190 122/182/190 96/183/190
f 124/165/191 118/164/191 122/182/191
f 118/164/192 91/160/192 122/182/192
f 122/162/193 123/184/193 96/185/193
f 122/162/194 117/161/194 123/184/194
f 117/161/195 95/172/195 123/184/195
f 108/159/196 121/173/196 95/172/196
f 108/159/197 115/154/197 121/173/197
f 115/154/198 94/169/198 121/173/198
f 116/158/199 120/170/199 94/169/199
f 116/158/200 113/151/200 120/170/200
f 113/151/201 93/166/201 120/170/201
f 114/157/202 119/167/202 93/166/202
f 114/157/203 111/148/203 119/167/203
f 111/148/204 92/181/204 119/167/204
f 112/156/205 118/164/205 92/163/205
f 112/156/206 109/145/206 118/164/206
f 109/145/207 91/160/207 118/164/207
f 110/155/208 117/161/208 91/160/208
f 110/155/209 107/142/209 117/161/209
f 107/142/210 95/172/210 117/161/210
f 115/154/211 116/158/211 94/169/211
f 115/154/212 106/153/212 116/158/212
f 106/153/213 89/149/213 116/158/213
f 113/151/214 114/157/214 93/166/214
f 113/151/215 105/150/215 114/157/215
f 105/150/216 88/146/216 114/157/216
f 111/148/217 112/186/217 92/181/217
f 111/148/218 103/147/218 112/186/218
f 103/147/219 87/187/219 112/186/219
f 109/145/220 110/155/220 91/160/220
f 109/145/221 99/144/221 110/155/221
f 99/144/222 86/130/222 110/155/222
f 107/142/223 108/159/223 95/172/223
f 107/142/224 100/132/224 108/159/224
f 100/132/225 90/152/225 108/159/225
f 101/141/226 106/153/226 90/152/226
f 101/141/227 104/140/227 106/153/227
f 104/140/228 89/149/228 106/153/228
f 104/138/229 105/150/229 89/149/229
f 104/138/230 102/137/230 105/150/230
f 102/137/231 88/146/231 105/150/231
f 102/135/232 103/147/232 88/146/232
f 102/135/233 97/134/233 103/147/233
f 97/134/234 87/187/234 103/147/234
f 100/132/235 101/188/235 90/152/235
f 100/132/236 98/131/236 101/188/236
f 98/131/237 85/189/237 101/188/237
f 97/129/238 99/144/238 87/143/238
f 97/129/239 98/128/239 99/144/239
f 98/128/240 86/130/240 99/144/240
