# Blender v2.82 (sub 7) OBJ File: 'Tanks.blend'
# www.blender.org
mtllib rock1.mtl
o rock1_Icosphere.013
v 0.439450 0.000000 0.344347
v -0.196934 -0.000000 0.455028
v -0.614022 -0.000000 -0.043368
v -0.131762 0.000000 -0.470440
v 0.503268 0.000000 -0.285567
v 0.163355 0.285463 0.336043
v -0.268831 0.400613 0.236771
v -0.298822 0.338941 -0.208773
v 0.097127 0.286886 -0.369217
v 0.373106 0.347400 0.019762
v -0.026380 0.584160 -0.085341
vt 0.727272 0.157461
vt 0.545454 0.157461
vt 0.636363 0.314921
vt 0.909090 0.157461
vt 0.818181 0.314921
vt 0.181818 0.157461
vt 0.000000 0.157461
vt 0.090909 0.314921
vt 0.363636 0.157461
vt 0.272727 0.314921
vt 0.454545 0.314921
vt 1.000000 0.314921
vt 0.727272 0.472382
vt 0.909090 0.472382
vt 0.181818 0.472382
vt 0.363636 0.472382
vt 0.545454 0.472382
vn 0.9570 0.2734 0.0970
vn 0.1682 0.1908 0.9671
vn -0.7502 0.2074 0.6278
vn -0.6430 0.2436 -0.7261
vn 0.2777 0.1150 -0.9538
vn 0.6064 0.6016 0.5200
vn -0.0782 0.4661 0.8813
vn -0.7419 0.6691 -0.0427
vn -0.2670 0.5030 -0.8220
vn 0.5654 0.6538 -0.5029
vn 0.3808 0.8266 0.4144
vn 0.0961 0.8320 0.5464
vn -0.6524 0.7554 -0.0606
vn -0.2217 0.6237 -0.7496
vn 0.5365 0.6887 -0.4878
vn 0.0000 -1.0000 -0.0000
usemtl Stone
s off
f 1/1/1 5/2/1 10/3/1
f 2/4/2 1/1/2 6/5/2
f 3/6/3 2/7/3 7/8/3
f 4/9/4 3/6/4 8/10/4
f 5/2/5 4/9/5 9/11/5
f 1/1/6 10/3/6 6/5/6
f 2/4/7 6/5/7 7/12/7
f 3/6/8 7/8/8 8/10/8
f 4/9/9 8/10/9 9/11/9
f 5/2/10 9/11/10 10/3/10
f 6/5/11 10/3/11 11/13/11
f 7/12/12 6/5/12 11/14/12
f 8/10/13 7/8/13 11/15/13
f 9/11/14 8/10/14 11/16/14
f 10/3/15 9/11/15 11/17/15
f 1/1/16 2/7/16 3/6/16 4/9/16 5/2/16
