# Blender v2.82 (sub 7) OBJ File: 'Tanks.blend'
# www.blender.org
mtllib rock3.mtl
o rock3_Plane.004
v -0.486189 0.000000 -0.198570
v -0.212279 0.000000 -0.368403
v 0.308148 0.000000 -0.346474
v 0.713535 0.000000 0.053412
v 0.713535 0.135492 0.053412
v 0.308148 0.135492 -0.346474
v -0.212279 0.135492 -0.368403
v -0.486189 0.135492 -0.198570
v -0.497145 0.135492 -0.012322
v -0.310887 0.135492 0.168465
v 0.083543 0.135492 0.349241
v 0.401279 0.135492 0.354734
v -0.497145 0.000000 -0.012322
v -0.310887 0.000000 0.168465
v 0.083543 0.000000 0.349241
v 0.401279 0.000000 0.354734
vt 0.649790 0.771484
vt 0.649790 0.771484
vt 0.279698 0.787079
vt 0.279698 0.787079
vt 0.938072 0.487114
vt 0.716018 0.272835
vt 0.490067 0.276741
vt 0.209576 0.405296
vt 0.077122 0.533859
vt 0.084913 0.666306
vt 0.084913 0.666306
vt 0.077122 0.533859
vt 0.209576 0.405296
vt 0.490067 0.276741
vt 0.716018 0.272835
vt 0.938072 0.487114
vn 0.0421 0.0000 -0.9991
vn 0.0000 -1.0000 0.0000
vn 0.0000 1.0000 -0.0000
vn -0.0173 0.0000 0.9999
vn -0.6965 0.0000 0.7176
vn -0.5270 0.0000 -0.8499
vn 0.7023 0.0000 -0.7119
vn 0.6944 0.0000 0.7196
vn -0.4166 0.0000 0.9091
vn -0.9983 0.0000 -0.0587
usemtl Stone
s off
f 6/1/1 3/2/1 2/3/1 7/4/1
f 3/2/2 4/5/2 16/6/2 15/7/2 14/8/2 13/9/2 1/10/2 2/3/2
f 6/1/3 7/4/3 8/11/3 9/12/3 10/13/3 11/14/3 12/15/3 5/16/3
f 11/14/4 15/7/4 16/6/4 12/15/4
f 9/12/5 13/9/5 14/8/5 10/13/5
f 7/4/6 2/3/6 1/10/6 8/11/6
f 5/16/7 4/5/7 3/2/7 6/1/7
f 12/15/8 16/6/8 4/5/8 5/16/8
f 10/13/9 14/8/9 15/7/9 11/14/9
f 8/11/10 1/10/10 13/9/10 9/12/10
