# Blender v2.82 (sub 7) OBJ File: 'Tanks.blend'
# www.blender.org
mtllib tree1.mtl
o tree1_Cylinder.015
v -0.000001 0.000000 -0.472931
v -0.000001 4.561028 -0.265767
v 0.369735 0.000000 -0.294876
v 0.207767 4.561028 -0.165711
v 0.461052 0.000000 0.105211
v 0.259082 4.561028 0.059113
v 0.205187 0.000000 0.426055
v 0.115302 4.561028 0.239407
v -0.205189 0.000000 0.426055
v -0.115303 4.561028 0.239407
v -0.461054 0.000000 0.105211
v -0.259084 4.561028 0.059113
v -0.369736 0.000000 -0.294876
v -0.207769 4.561028 -0.165711
v -0.000005 5.407885 -0.000043
v -0.073728 4.775654 0.748762
v 0.689362 4.775654 0.301458
v 0.499765 4.775654 -0.562502
v -0.380491 4.775654 -0.649166
v -0.734934 4.775654 0.161231
v 0.380480 3.752677 0.649081
v 0.734923 3.752677 -0.161316
v 0.073717 3.752677 -0.748847
v -0.689372 3.752677 -0.301543
v -0.499775 3.752677 0.562416
v -0.000005 3.120447 -0.000043
v -0.000002 2.232900 -0.000044
v -0.750991 2.780511 0.642550
v -0.843213 2.780511 -0.515704
v 0.229860 2.780511 -0.961343
v 0.985268 2.780511 -0.078484
v 0.379063 2.780511 0.912765
v -0.985272 3.666570 0.078395
v -0.379068 3.666570 -0.912854
v 0.750986 3.666570 -0.642639
v 0.843208 3.666570 0.515616
v -0.229865 3.666570 0.961255
v -0.000002 4.214180 -0.000044
v -0.000000 3.402056 -0.000042
v 1.180575 2.747973 -0.000042
v 0.364808 2.747973 -1.122825
v -0.955100 2.747973 -0.693954
v -0.955100 2.747973 0.693870
v 0.364808 2.747973 1.122741
v 0.955099 1.689636 -0.693954
v -0.364808 1.689636 -1.122825
v -1.180576 1.689636 -0.000042
v -0.364808 1.689636 1.122741
v 0.955099 1.689636 0.693870
v -0.000000 1.035552 -0.000042
vt 0.636363 0.314921
vt 0.454545 0.314921
vt 0.545454 0.472382
vt 0.272727 0.314921
vt 0.363636 0.472382
vt 0.090909 0.314921
vt 0.181818 0.472382
vt 1.000000 0.314921
vt 0.818181 0.314921
vt 0.909090 0.472382
vt 0.727272 0.472382
vt 0.545454 0.157461
vt 0.363636 0.157461
vt 0.181818 0.157461
vt 0.909090 0.157461
vt 0.727272 0.157461
vt 0.000000 0.157461
vt 0.454545 0.000000
vt 0.272727 0.000000
vt 0.090909 0.000000
vt 0.636363 0.000000
vt 0.818181 0.000000
vt 0.818181 0.000000
vt 0.727272 0.157461
vt 0.909090 0.157461
vt 0.636363 0.000000
vt 0.545454 0.157461
vt 0.090909 0.000000
vt 0.000000 0.157461
vt 0.181818 0.157461
vt 0.272727 0.000000
vt 0.363636 0.157461
vt 0.454545 0.000000
vt 0.636363 0.314921
vt 0.818181 0.314921
vt 0.090909 0.314921
vt 0.272727 0.314921
vt 0.454545 0.314921
vt 1.000000 0.314921
vt 0.727272 0.472382
vt 0.909090 0.472382
vt 0.181818 0.472382
vt 0.363636 0.472382
vt 0.545454 0.472382
vt 0.636363 0.314921
vt 0.454545 0.314921
vt 0.545454 0.472382
vt 0.272727 0.314921
vt 0.363636 0.472382
vt 0.090909 0.314921
vt 0.181818 0.472382
vt 1.000000 0.314921
vt 0.818181 0.314921
vt 0.909090 0.472382
vt 0.727272 0.472382
vt 0.545454 0.157461
vt 0.363636 0.157461
vt 0.181818 0.157461
vt 0.909090 0.157461
vt 0.727272 0.157461
vt 0.000000 0.157461
vt 0.454545 0.000000
vt 0.272727 0.000000
vt 0.090909 0.000000
vt 0.636363 0.000000
vt 0.818181 0.000000
vt 1.000000 0.500000
vt 1.000000 1.000000
vt 0.857143 1.000000
vt 0.857143 0.500000
vt 0.714286 1.000000
vt 0.714286 0.500000
vt 0.571429 1.000000
vt 0.571429 0.500000
vt 0.428571 1.000000
vt 0.428571 0.500000
vt 0.285714 1.000000
vt 0.285714 0.500000
vt 0.142857 1.000000
vt 0.142857 0.500000
vt 0.000000 1.000000
vt 0.000000 0.500000
vt 0.750000 0.490000
vt 0.937640 0.399638
vt 0.983983 0.196595
vt 0.854132 0.033767
vt 0.645868 0.033767
vt 0.516017 0.196595
vt 0.562360 0.399638
vn 0.3643 0.6936 0.6215
vn 0.7036 0.6936 -0.1544
vn 0.0706 0.6936 -0.7169
vn -0.6600 0.6936 -0.2887
vn -0.4785 0.6936 0.5385
vn 0.5008 0.1391 0.8543
vn 0.9673 0.1391 -0.2123
vn 0.0970 0.1391 -0.9855
vn -0.9073 0.1391 -0.3968
vn -0.6578 0.1391 0.7403
vn 0.9073 -0.1391 0.3968
vn 0.6578 -0.1391 -0.7403
vn -0.5008 -0.1391 -0.8543
vn -0.9673 -0.1391 0.2123
vn -0.0970 -0.1391 0.9855
vn 0.6600 -0.6936 0.2887
vn 0.4785 -0.6936 -0.5385
vn -0.3643 -0.6936 -0.6215
vn -0.0706 -0.6936 0.7169
vn -0.7036 -0.6936 0.1544
vn -0.5633 -0.8251 0.0448
vn -0.1314 -0.8251 0.5495
vn -0.2167 -0.8251 -0.5218
vn 0.4293 -0.8251 -0.3673
vn 0.4820 -0.8251 0.2948
vn -0.2275 -0.2084 0.9512
vn -0.9750 -0.2084 0.0776
vn -0.3751 -0.2084 -0.9033
vn 0.7431 -0.2084 -0.6359
vn 0.8344 -0.2084 0.5103
vn -0.7431 0.2084 0.6359
vn -0.8344 0.2084 -0.5103
vn 0.2275 0.2084 -0.9512
vn 0.9750 0.2084 -0.0776
vn 0.3751 0.2084 0.9033
vn -0.4293 0.8251 0.3673
vn -0.4820 0.8251 -0.2948
vn 0.1314 0.8251 -0.5495
vn 0.5633 0.8251 -0.0448
vn 0.2167 0.8251 0.5218
vn 0.4571 0.8251 -0.3321
vn -0.1746 0.8251 -0.5374
vn -0.5650 0.8251 0.0000
vn -0.1746 0.8251 0.5374
vn 0.4571 0.8251 0.3321
vn 0.7913 0.2084 -0.5749
vn -0.3022 0.2084 -0.9302
vn -0.9780 0.2084 0.0000
vn -0.3022 0.2084 0.9302
vn 0.7913 0.2084 0.5749
vn 0.3022 -0.2084 -0.9302
vn -0.7913 -0.2084 -0.5749
vn -0.7913 -0.2084 0.5749
vn 0.3022 -0.2084 0.9302
vn 0.9780 -0.2084 0.0000
vn 0.1746 -0.8251 -0.5374
vn -0.4571 -0.8251 -0.3321
vn -0.4571 -0.8251 0.3321
vn 0.5650 -0.8251 0.0000
vn 0.1746 -0.8251 0.5374
vn 0.4335 0.0409 -0.9002
vn 0.9741 0.0409 -0.2223
vn 0.7812 0.0409 0.6230
vn -0.0000 0.0409 0.9992
vn -0.7812 0.0409 0.6230
vn -0.9741 0.0409 -0.2223
vn -0.4335 0.0409 -0.9002
vn 0.0000 -1.0000 0.0000
vn 0.0000 1.0000 0.0000
usemtl Leaves
s off
f 16/1/1 17/2/1 15/3/1
f 17/2/2 18/4/2 15/5/2
f 18/4/3 19/6/3 15/7/3
f 19/8/4 20/9/4 15/10/4
f 20/9/5 16/1/5 15/11/5
f 21/12/6 17/2/6 16/1/6
f 22/13/7 18/4/7 17/2/7
f 23/14/8 19/6/8 18/4/8
f 24/15/9 20/9/9 19/8/9
f 25/16/10 16/1/10 20/9/10
f 21/12/11 22/13/11 17/2/11
f 22/13/12 23/14/12 18/4/12
f 23/14/13 24/17/13 19/6/13
f 24/15/14 25/16/14 20/9/14
f 25/16/15 21/12/15 16/1/15
f 26/18/16 22/13/16 21/12/16
f 26/19/17 23/14/17 22/13/17
f 26/20/18 24/17/18 23/14/18
f 25/16/19 26/21/19 21/12/19
f 26/22/20 25/16/20 24/15/20
f 27/23/21 28/24/21 29/25/21
f 28/24/22 27/26/22 32/27/22
f 27/28/23 29/29/23 30/30/23
f 27/31/24 30/30/24 31/32/24
f 27/33/25 31/32/25 32/27/25
f 28/24/26 32/27/26 37/34/26
f 29/25/27 28/24/27 33/35/27
f 30/30/28 29/29/28 34/36/28
f 31/32/29 30/30/29 35/37/29
f 32/27/30 31/32/30 36/38/30
f 28/24/31 37/34/31 33/35/31
f 29/25/32 33/35/32 34/39/32
f 30/30/33 34/36/33 35/37/33
f 31/32/34 35/37/34 36/38/34
f 32/27/35 36/38/35 37/34/35
f 33/35/36 37/34/36 38/40/36
f 34/39/37 33/35/37 38/41/37
f 35/37/38 34/36/38 38/42/38
f 36/38/39 35/37/39 38/43/39
f 37/34/40 36/38/40 38/44/40
f 40/45/41 41/46/41 39/47/41
f 41/46/42 42/48/42 39/49/42
f 42/48/43 43/50/43 39/51/43
f 43/52/44 44/53/44 39/54/44
f 44/53/45 40/45/45 39/55/45
f 45/56/46 41/46/46 40/45/46
f 46/57/47 42/48/47 41/46/47
f 47/58/48 43/50/48 42/48/48
f 48/59/49 44/53/49 43/52/49
f 49/60/50 40/45/50 44/53/50
f 45/56/51 46/57/51 41/46/51
f 46/57/52 47/58/52 42/48/52
f 47/58/53 48/61/53 43/50/53
f 48/59/54 49/60/54 44/53/54
f 49/60/55 45/56/55 40/45/55
f 50/62/56 46/57/56 45/56/56
f 50/63/57 47/58/57 46/57/57
f 50/64/58 48/61/58 47/58/58
f 49/60/59 50/65/59 45/56/59
f 50/66/60 49/60/60 48/59/60
usemtl Wood
f 1/67/61 2/68/61 4/69/61 3/70/61
f 3/70/62 4/69/62 6/71/62 5/72/62
f 5/72/63 6/71/63 8/73/63 7/74/63
f 7/74/64 8/73/64 10/75/64 9/76/64
f 9/76/65 10/75/65 12/77/65 11/78/65
f 11/78/66 12/77/66 14/79/66 13/80/66
f 13/80/67 14/79/67 2/81/67 1/82/67
f 1/83/68 3/84/68 5/85/68 7/86/68 9/87/68 11/88/68 13/89/68
f 4/69/69 2/81/69 14/79/69 12/77/69 10/75/69 8/73/69 6/71/69
