# Blender v2.82 (sub 7) OBJ File: 'Tanks.blend'
# www.blender.org
mtllib tree4.mtl
o tree4_Cylinder.019
v -0.000001 0.000000 -0.551540
v -0.000001 4.478459 -0.184285
v 0.437323 0.000000 -0.340936
v 0.203317 4.471804 -0.086599
v 0.545334 0.000000 0.132288
v 0.253533 4.456849 0.132900
v 0.242695 0.000000 0.511784
v 0.112832 4.444855 0.308925
v -0.242698 0.000000 0.511784
v -0.112834 4.444855 0.308925
v -0.545336 0.000000 0.132288
v -0.253534 4.456849 0.132900
v -0.437326 0.000000 -0.340936
v -0.203319 4.471804 -0.086599
v 0.656887 2.456022 0.001652
v 1.527650 3.121218 0.634291
v 0.324292 3.121218 1.025293
v -0.419434 3.121223 0.001652
v 0.324292 3.121218 -1.021989
v 1.527650 3.121218 -0.630987
v 0.989482 4.197555 1.025293
v -0.213876 4.197554 0.634291
v -0.213876 4.197554 -0.630987
v 0.989482 4.197555 -1.021989
v 1.733208 4.197549 0.001652
v 0.656887 4.862751 0.001652
v 0.461394 2.635739 0.603329
v 1.168705 2.635740 0.373506
v 0.973214 3.026733 0.975188
v 1.680526 3.026735 0.001652
v 1.168705 2.635740 -0.370201
v 0.024243 2.635743 0.001652
v -0.171255 3.026734 0.603331
v 0.461394 2.635739 -0.600024
v -0.171255 3.026734 -0.600026
v 0.973214 3.026733 -0.971883
v 1.801356 3.659387 0.373507
v 1.801356 3.659387 -0.370202
v 0.656887 3.659387 1.205017
v 1.364207 3.659387 0.975194
v -0.487582 3.659387 0.373507
v -0.050433 3.659387 0.975194
v -0.050433 3.659387 -0.971889
v -0.487582 3.659387 -0.370202
v 1.364207 3.659387 -0.971889
v 0.656887 3.659387 -1.201712
v 1.485030 4.292038 0.603331
v 0.340560 4.292041 0.975188
v -0.366752 4.292038 0.001652
v 0.340560 4.292041 -0.971883
v 1.485030 4.292038 -0.600026
v 0.852380 4.683033 0.603329
v 1.289531 4.683030 0.001652
v 0.145069 4.683033 0.373506
v 0.145069 4.683033 -0.370201
v 0.852380 4.683033 -0.600024
v -0.000001 2.278221 -0.517824
v 0.340699 2.268994 -0.354131
v 0.424845 2.248260 0.013685
v 0.189073 2.231633 0.308650
v -0.189076 2.231633 0.308650
v -0.424848 2.248260 0.013685
v -0.340702 2.268994 -0.354131
v -0.629705 2.391161 -0.000010
v 0.388663 3.169116 0.739869
v -1.018680 3.169116 1.197151
v -1.888476 3.169122 -0.000010
v -1.018680 3.169116 -1.197171
v 0.388663 3.169116 -0.739889
v -0.240731 4.427906 1.197151
v -1.648074 4.427905 0.739869
v -1.648074 4.427905 -0.739889
v -0.240731 4.427906 -1.197171
v 0.629065 4.427899 -0.000010
v -0.629705 5.205862 -0.000010
v -0.858337 2.601342 0.703658
v -0.031127 2.601343 0.434877
v -0.259757 3.058614 1.138552
v 0.567454 3.058616 -0.000010
v -0.031127 2.601343 -0.434897
v -1.369591 2.601347 -0.000010
v -1.598228 3.058616 0.703660
v -0.858337 2.601342 -0.703678
v -1.598228 3.058616 -0.703680
v -0.259757 3.058614 -1.138572
v 0.708766 3.798511 0.434879
v 0.708766 3.798511 -0.434899
v -0.629705 3.798511 1.407340
v 0.197515 3.798511 1.138559
v -1.968176 3.798511 0.434879
v -1.456925 3.798511 1.138559
v -1.456925 3.798511 -1.138579
v -1.968176 3.798511 -0.434899
v 0.197515 3.798511 -1.138579
v -0.629705 3.798511 -1.407360
v 0.338818 4.538406 0.703660
v -0.999654 4.538408 1.138552
v -1.826864 4.538405 -0.000010
v -0.999654 4.538408 -1.138572
v 0.338818 4.538406 -0.703680
v -0.401073 4.995678 0.703658
v 0.110180 4.995675 -0.000010
v -1.228283 4.995678 0.434877
v -1.228283 4.995678 -0.434897
v -0.401073 4.995678 -0.703678
v 0.425084 4.132466 -1.179749
v -0.108970 4.132466 -1.006222
v -0.108970 4.132466 -0.444688
v 0.755154 4.132463 -0.725455
v 0.425084 4.132466 -0.271160
v 0.902764 3.837246 -1.179751
v 0.038635 3.837248 -1.460521
v -0.495420 3.837246 -0.725455
v 0.038635 3.837248 0.009612
v 0.902764 3.837246 -0.271159
v 0.277477 3.359564 -1.634052
v 0.811537 3.359564 -1.460525
v -0.586652 3.359564 -1.006223
v -0.256584 3.359564 -1.460525
v -0.256584 3.359564 0.009616
v -0.586652 3.359564 -0.444686
v 0.811537 3.359564 0.009616
v 0.277477 3.359564 0.183143
v 1.141606 3.359564 -1.006223
v 1.141606 3.359564 -0.444686
v 0.516319 2.881880 -1.460521
v -0.347810 2.881881 -1.179751
v 0.129870 2.586661 -1.179749
v -0.347810 2.881881 -0.271159
v -0.200200 2.586664 -0.725455
v 0.663924 2.586661 -1.006222
v 1.050373 2.881881 -0.725455
v 0.516319 2.881880 0.009612
v 0.663924 2.586661 -0.444688
v 0.129870 2.586661 -0.271160
v 0.277477 4.268162 -0.725455
v 1.090150 3.765902 -0.725455
v 0.528602 3.765906 -1.498352
v -0.379991 3.765906 -1.203128
v -0.379991 3.765906 -0.247782
v 0.528602 3.765906 0.047443
v 0.934945 2.953221 -1.203128
v 0.026351 2.953221 -1.498352
v -0.535197 2.953224 -0.725455
v 0.026351 2.953221 0.047443
v 0.934945 2.953221 -0.247782
v 0.277477 2.450966 -0.725455
vt 0.818181 0.000000
vt 0.772726 0.078731
vt 0.863635 0.078731
vt 0.727272 0.157461
vt 0.681818 0.078731
vt 0.636363 0.157461
vt 0.090909 0.000000
vt 0.045454 0.078731
vt 0.136363 0.078731
vt 0.272727 0.000000
vt 0.227273 0.078731
vt 0.318182 0.078731
vt 0.454545 0.000000
vt 0.409090 0.078731
vt 0.500000 0.078731
vt 0.681818 0.236191
vt 0.909090 0.157461
vt 0.818181 0.157461
vt 0.863635 0.236191
vt 0.181818 0.157461
vt 0.090909 0.157461
vt 0.136363 0.236191
vt 0.363636 0.157461
vt 0.272727 0.157461
vt 0.318182 0.236191
vt 0.545454 0.157461
vt 0.454545 0.157461
vt 0.500000 0.236191
vt 0.772726 0.236191
vt 0.954545 0.236191
vt 0.227273 0.236191
vt 0.409090 0.236191
vt 0.590909 0.236191
vt 0.818181 0.314921
vt 0.727272 0.314921
vt 0.772726 0.393651
vt 1.000000 0.314921
vt 0.909091 0.314921
vt 0.954545 0.393651
vt 0.272727 0.314921
vt 0.181818 0.314921
vt 0.227273 0.393651
vt 0.454545 0.314921
vt 0.363636 0.314921
vt 0.409090 0.393651
vt 0.636363 0.314921
vt 0.545454 0.314921
vt 0.590909 0.393651
vt 0.500000 0.393651
vt 0.545454 0.472382
vt 0.318182 0.393651
vt 0.363636 0.472382
vt 0.136363 0.393651
vt 0.181818 0.472382
vt 0.090909 0.314921
vt 0.863635 0.393651
vt 0.909090 0.472382
vt 0.681818 0.393651
vt 0.727272 0.472382
vt 0.045454 0.236191
vt 0.000000 0.157461
vt 0.590909 0.078731
vt 0.636363 0.000000
vt 0.818181 0.000000
vt 0.772726 0.078731
vt 0.863635 0.078731
vt 0.727272 0.157461
vt 0.681818 0.078731
vt 0.636363 0.157461
vt 0.090909 0.000000
vt 0.045454 0.078731
vt 0.136363 0.078731
vt 0.272727 0.000000
vt 0.227273 0.078731
vt 0.318182 0.078731
vt 0.454545 0.000000
vt 0.409090 0.078731
vt 0.500000 0.078731
vt 0.681818 0.236191
vt 0.909090 0.157461
vt 0.818181 0.157461
vt 0.863635 0.236191
vt 0.181818 0.157461
vt 0.090909 0.157461
vt 0.136363 0.236191
vt 0.363636 0.157461
vt 0.272727 0.157461
vt 0.318182 0.236191
vt 0.545454 0.157461
vt 0.454545 0.157461
vt 0.500000 0.236191
vt 0.772726 0.236191
vt 0.954545 0.236191
vt 0.227273 0.236191
vt 0.409090 0.236191
vt 0.590909 0.236191
vt 0.818181 0.314921
vt 0.727272 0.314921
vt 0.772726 0.393651
vt 1.000000 0.314921
vt 0.909091 0.314921
vt 0.954545 0.393651
vt 0.272727 0.314921
vt 0.181818 0.314921
vt 0.227273 0.393651
vt 0.454545 0.314921
vt 0.363636 0.314921
vt 0.409090 0.393651
vt 0.636363 0.314921
vt 0.545454 0.314921
vt 0.590909 0.393651
vt 0.500000 0.393651
vt 0.545454 0.472382
vt 0.318182 0.393651
vt 0.363636 0.472382
vt 0.136363 0.393651
vt 0.181818 0.472382
vt 0.090909 0.314921
vt 0.863635 0.393651
vt 0.909090 0.472382
vt 0.681818 0.393651
vt 0.727272 0.472382
vt 0.045454 0.236191
vt 0.000000 0.157461
vt 0.590909 0.078731
vt 0.636363 0.000000
vt 0.863635 0.078731
vt 0.772726 0.078731
vt 0.818181 0.157461
vt 0.045454 0.078731
vt 0.000000 0.157461
vt 0.090909 0.157461
vt 0.727272 0.157461
vt 0.909090 0.157461
vt 0.681818 0.078731
vt 0.636363 0.000000
vt 0.590909 0.078731
vt 0.136363 0.078731
vt 0.318182 0.078731
vt 0.272727 0.157461
vt 0.363636 0.157461
vt 0.681818 0.236191
vt 0.636363 0.157461
vt 0.590909 0.236191
vt 0.045454 0.236191
vt 0.454545 0.157461
vt 0.409090 0.236191
vt 0.181818 0.157461
vt 0.409090 0.078731
vt 0.636363 0.314921
vt 0.136363 0.236191
vt 0.500000 0.236191
vt 0.772726 0.236191
vt 0.727272 0.314921
vt 0.818181 0.314921
vt 0.227273 0.236191
vt 0.181818 0.314921
vt 0.454545 0.314921
vt 0.545454 0.314921
vt 0.772726 0.393651
vt 0.681818 0.393651
vt 0.727272 0.472382
vt 0.227273 0.393651
vt 0.136363 0.393651
vt 0.409090 0.393651
vt 0.318182 0.393651
vt 0.363636 0.472382
vt 0.818181 0.000000
vt 0.909091 0.314921
vt 0.863635 0.393651
vt 0.590909 0.393651
vt 0.500000 0.393651
vt 0.545454 0.472382
vt 0.090909 0.000000
vt 0.272727 0.314921
vt 0.272727 0.000000
vt 0.227273 0.078731
vt 0.863635 0.236191
vt 0.363636 0.314921
vt 0.454545 0.000000
vt 0.500000 0.078731
vt 0.090909 0.314921
vt 0.318182 0.236191
vt 0.954545 0.393651
vt 0.954545 0.236191
vt 0.545454 0.157461
vt 0.181818 0.472382
vt 1.000000 0.314921
vt 0.909090 0.472382
vt 1.000000 0.752183
vt 1.000000 1.000000
vt 0.857143 1.000000
vt 0.857143 0.752183
vt 0.714286 1.000000
vt 0.714286 0.752183
vt 0.571429 1.000000
vt 0.571429 0.752183
vt 0.428571 1.000000
vt 0.428571 0.752183
vt 0.285714 1.000000
vt 0.285714 0.752183
vt 0.142857 1.000000
vt 0.142857 0.752183
vt 0.000000 1.000000
vt 0.000000 0.752183
vt 0.750000 0.490000
vt 0.937640 0.399638
vt 0.983983 0.196595
vt 0.854132 0.033767
vt 0.645868 0.033767
vt 0.516017 0.196595
vt 0.562360 0.399638
vt 0.142857 0.500000
vt 0.000000 0.500000
vt 0.285714 0.500000
vt 0.428571 0.500000
vt 0.571429 0.500000
vt 0.714286 0.500000
vt 0.857143 0.500000
vt 1.000000 0.500000
vn 0.1024 -0.9435 0.3151
vn 0.7002 -0.6617 0.2680
vn -0.2680 -0.9435 0.1947
vn -0.2680 -0.9435 -0.1947
vn 0.1024 -0.9435 -0.3151
vn 0.9050 -0.3304 0.2680
vn 0.0247 -0.3304 0.9435
vn -0.8897 -0.3304 0.3151
vn -0.5746 -0.3304 -0.7488
vn 0.5346 -0.3304 -0.7779
vn 0.8026 -0.1256 0.5831
vn -0.3066 -0.1256 0.9435
vn -0.9921 -0.1256 0.0000
vn -0.3066 -0.1256 -0.9435
vn 0.8026 -0.1256 -0.5831
vn 0.4089 0.6617 0.6284
vn -0.4713 0.6617 0.5831
vn -0.7002 0.6617 -0.2680
vn 0.0385 0.6617 -0.7488
vn 0.7240 0.6617 -0.1947
vn 0.2680 0.9435 -0.1947
vn 0.4911 0.7947 -0.3568
vn 0.4089 0.6617 -0.6284
vn -0.1024 0.9435 -0.3151
vn -0.1876 0.7947 -0.5773
vn -0.4713 0.6617 -0.5831
vn -0.3313 0.9435 0.0000
vn -0.6071 0.7947 0.0000
vn -0.7002 0.6617 0.2680
vn -0.1024 0.9435 0.3151
vn -0.1876 0.7947 0.5773
vn 0.0385 0.6617 0.7488
vn 0.2680 0.9435 0.1947
vn 0.4911 0.7947 0.3568
vn 0.7240 0.6617 0.1947
vn 0.8897 0.3304 -0.3151
vn 0.7947 0.1876 -0.5773
vn 0.5746 0.3304 -0.7488
vn -0.0247 0.3304 -0.9435
vn -0.3035 0.1876 -0.9342
vn -0.5346 0.3304 -0.7779
vn -0.9050 0.3304 -0.2680
vn -0.9822 0.1876 0.0000
vn -0.9050 0.3304 0.2680
vn -0.5346 0.3304 0.7779
vn -0.3035 0.1876 0.9342
vn -0.0247 0.3304 0.9435
vn 0.5746 0.3304 0.7488
vn 0.7947 0.1876 0.5773
vn 0.8897 0.3304 0.3151
vn 0.3066 0.1256 -0.9435
vn 0.3035 -0.1876 -0.9342
vn 0.0247 -0.3304 -0.9435
vn -0.8026 0.1256 -0.5831
vn -0.7947 -0.1876 -0.5773
vn -0.8897 -0.3304 -0.3151
vn -0.8026 0.1256 0.5831
vn -0.7947 -0.1876 0.5773
vn -0.5746 -0.3304 0.7488
vn 0.3066 0.1256 0.9435
vn 0.3035 -0.1876 0.9342
vn 0.5346 -0.3304 0.7779
vn 0.9921 0.1256 0.0000
vn 0.9822 -0.1876 0.0000
vn 0.9050 -0.3304 -0.2680
vn 0.4713 -0.6617 -0.5831
vn 0.1876 -0.7947 -0.5773
vn -0.0385 -0.6617 -0.7488
vn -0.4089 -0.6617 -0.6284
vn -0.4911 -0.7947 -0.3568
vn -0.7240 -0.6617 -0.1947
vn -0.7240 -0.6617 0.1947
vn -0.4911 -0.7947 0.3568
vn -0.4089 -0.6617 0.6284
vn 0.7002 -0.6617 -0.2680
vn 0.6071 -0.7947 0.0000
vn 0.3313 -0.9435 0.0000
vn -0.0385 -0.6617 0.7488
vn 0.1876 -0.7947 0.5773
vn 0.4713 -0.6617 0.5831
vn 0.4323 0.1352 -0.8915
vn 0.9723 0.0871 -0.2171
vn 0.7801 0.0268 0.6251
vn 0.0000 -0.0001 1.0000
vn -0.7801 0.0268 0.6251
vn -0.9723 0.0871 -0.2171
vn -0.4323 0.1352 -0.8915
vn 0.0000 -1.0000 0.0000
vn 0.0000 0.9977 0.0680
vn -0.4336 0.0133 -0.9010
vn -0.9743 0.0404 -0.2216
vn -0.7784 0.0750 0.6232
vn 0.0000 0.0907 0.9959
vn 0.7784 0.0750 0.6232
vn 0.9743 0.0404 -0.2216
vn 0.4336 0.0133 -0.9010
usemtl Leaves
s off
f 15/1/1 28/2/1 27/3/1
f 16/4/2 28/5/2 30/6/2
f 15/7/3 27/8/3 32/9/3
f 15/10/4 32/11/4 34/12/4
f 15/13/5 34/14/5 31/15/5
f 16/4/6 30/6/6 37/16/6
f 17/17/7 29/18/7 39/19/7
f 18/20/8 33/21/8 41/22/8
f 19/23/9 35/24/9 43/25/9
f 20/26/10 36/27/10 45/28/10
f 16/4/11 37/16/11 40/29/11
f 17/17/12 39/19/12 42/30/12
f 18/20/13 41/22/13 44/31/13
f 19/23/14 43/25/14 46/32/14
f 20/26/15 45/28/15 38/33/15
f 21/34/16 47/35/16 52/36/16
f 22/37/17 48/38/17 54/39/17
f 23/40/18 49/41/18 55/42/18
f 24/43/19 50/44/19 56/45/19
f 25/46/20 51/47/20 53/48/20
f 53/48/21 56/49/21 26/50/21
f 53/48/22 51/47/22 56/49/22
f 51/47/23 24/43/23 56/49/23
f 56/45/24 55/51/24 26/52/24
f 56/45/25 50/44/25 55/51/25
f 50/44/26 23/40/26 55/51/26
f 55/42/27 54/53/27 26/54/27
f 55/42/28 49/41/28 54/53/28
f 49/41/29 22/55/29 54/53/29
f 54/39/30 52/56/30 26/57/30
f 54/39/31 48/38/31 52/56/31
f 48/38/32 21/34/32 52/56/32
f 52/36/33 53/58/33 26/59/33
f 52/36/34 47/35/34 53/58/34
f 47/35/35 25/46/35 53/58/35
f 38/33/36 51/47/36 25/46/36
f 38/33/37 45/28/37 51/47/37
f 45/28/38 24/43/38 51/47/38
f 46/32/39 50/44/39 24/43/39
f 46/32/40 43/25/40 50/44/40
f 43/25/41 23/40/41 50/44/41
f 44/31/42 49/41/42 23/40/42
f 44/31/43 41/22/43 49/41/43
f 41/22/44 22/55/44 49/41/44
f 42/30/45 48/38/45 22/37/45
f 42/30/46 39/19/46 48/38/46
f 39/19/47 21/34/47 48/38/47
f 40/29/48 47/35/48 21/34/48
f 40/29/49 37/16/49 47/35/49
f 37/16/50 25/46/50 47/35/50
f 45/28/51 46/32/51 24/43/51
f 45/28/52 36/27/52 46/32/52
f 36/27/53 19/23/53 46/32/53
f 43/25/54 44/31/54 23/40/54
f 43/25/55 35/24/55 44/31/55
f 35/24/56 18/20/56 44/31/56
f 41/22/57 42/60/57 22/55/57
f 41/22/58 33/21/58 42/60/58
f 33/21/59 17/61/59 42/60/59
f 39/19/60 40/29/60 21/34/60
f 39/19/61 29/18/61 40/29/61
f 29/18/62 16/4/62 40/29/62
f 37/16/63 38/33/63 25/46/63
f 37/16/64 30/6/64 38/33/64
f 30/6/65 20/26/65 38/33/65
f 31/15/66 36/27/66 20/26/66
f 31/15/67 34/14/67 36/27/67
f 34/14/68 19/23/68 36/27/68
f 34/12/69 35/24/69 19/23/69
f 34/12/70 32/11/70 35/24/70
f 32/11/71 18/20/71 35/24/71
f 32/9/72 33/21/72 18/20/72
f 32/9/73 27/8/73 33/21/73
f 27/8/74 17/61/74 33/21/74
f 30/6/75 31/62/75 20/26/75
f 30/6/76 28/5/76 31/62/76
f 28/5/77 15/63/77 31/62/77
f 27/3/78 29/18/78 17/17/78
f 27/3/79 28/2/79 29/18/79
f 28/2/80 16/4/80 29/18/80
f 64/64/1 77/65/1 76/66/1
f 65/67/2 77/68/2 79/69/2
f 64/70/3 76/71/3 81/72/3
f 64/73/4 81/74/4 83/75/4
f 64/76/5 83/77/5 80/78/5
f 65/67/6 79/69/6 86/79/6
f 66/80/7 78/81/7 88/82/7
f 67/83/8 82/84/8 90/85/8
f 68/86/9 84/87/9 92/88/9
f 69/89/10 85/90/10 94/91/10
f 65/67/11 86/79/11 89/92/11
f 66/80/12 88/82/12 91/93/12
f 67/83/13 90/85/13 93/94/13
f 68/86/14 92/88/14 95/95/14
f 69/89/15 94/91/15 87/96/15
f 70/97/16 96/98/16 101/99/16
f 71/100/17 97/101/17 103/102/17
f 72/103/18 98/104/18 104/105/18
f 73/106/19 99/107/19 105/108/19
f 74/109/20 100/110/20 102/111/20
f 102/111/21 105/112/21 75/113/21
f 102/111/22 100/110/22 105/112/22
f 100/110/23 73/106/23 105/112/23
f 105/108/24 104/114/24 75/115/24
f 105/108/25 99/107/25 104/114/25
f 99/107/26 72/103/26 104/114/26
f 104/105/27 103/116/27 75/117/27
f 104/105/28 98/104/28 103/116/28
f 98/104/29 71/118/29 103/116/29
f 103/102/30 101/119/30 75/120/30
f 103/102/31 97/101/31 101/119/31
f 97/101/32 70/97/32 101/119/32
f 101/99/33 102/121/33 75/122/33
f 101/99/34 96/98/34 102/121/34
f 96/98/35 74/109/35 102/121/35
f 87/96/36 100/110/36 74/109/36
f 87/96/37 94/91/37 100/110/37
f 94/91/38 73/106/38 100/110/38
f 95/95/39 99/107/39 73/106/39
f 95/95/40 92/88/40 99/107/40
f 92/88/41 72/103/41 99/107/41
f 93/94/42 98/104/42 72/103/42
f 93/94/43 90/85/43 98/104/43
f 90/85/44 71/118/44 98/104/44
f 91/93/45 97/101/45 71/100/45
f 91/93/46 88/82/46 97/101/46
f 88/82/47 70/97/47 97/101/47
f 89/92/48 96/98/48 70/97/48
f 89/92/49 86/79/49 96/98/49
f 86/79/50 74/109/50 96/98/50
f 94/91/51 95/95/51 73/106/51
f 94/91/52 85/90/52 95/95/52
f 85/90/53 68/86/53 95/95/53
f 92/88/54 93/94/54 72/103/54
f 92/88/55 84/87/55 93/94/55
f 84/87/56 67/83/56 93/94/56
f 90/85/57 91/123/57 71/118/57
f 90/85/58 82/84/58 91/123/58
f 82/84/59 66/124/59 91/123/59
f 88/82/60 89/92/60 70/97/60
f 88/82/61 78/81/61 89/92/61
f 78/81/62 65/67/62 89/92/62
f 86/79/63 87/96/63 74/109/63
f 86/79/64 79/69/64 87/96/64
f 79/69/65 69/89/65 87/96/65
f 80/78/66 85/90/66 69/89/66
f 80/78/67 83/77/67 85/90/67
f 83/77/68 68/86/68 85/90/68
f 83/75/69 84/87/69 68/86/69
f 83/75/70 81/74/70 84/87/70
f 81/74/71 67/83/71 84/87/71
f 81/72/72 82/84/72 67/83/72
f 81/72/73 76/71/73 82/84/73
f 76/71/74 66/124/74 82/84/74
f 79/69/75 80/125/75 69/89/75
f 79/69/76 77/68/76 80/125/76
f 77/68/77 64/126/77 80/125/77
f 76/66/78 78/81/78 66/80/78
f 76/66/79 77/65/79 78/81/79
f 77/65/80 65/67/80 78/81/80
f 135/127/79 134/128/79 133/129/79
f 135/130/74 145/131/74 129/132/74
f 134/128/80 146/133/80 133/129/80
f 135/127/78 133/129/78 145/134/78
f 134/135/77 147/136/77 131/137/77
f 130/138/73 135/130/73 129/132/73
f 128/139/69 127/140/69 143/141/69
f 125/142/64 132/143/64 124/144/64
f 129/132/59 145/131/59 120/145/59
f 126/146/53 143/141/53 116/147/53
f 130/138/72 129/132/72 144/148/72
f 128/149/68 143/141/68 126/146/68
f 125/142/63 124/144/63 137/150/63
f 121/151/58 129/132/58 120/145/58
f 117/152/52 126/146/52 116/147/52
f 122/153/48 115/154/48 141/155/48
f 118/156/43 121/151/43 113/157/43
f 117/152/38 138/158/38 111/159/38
f 110/160/33 109/161/33 136/162/33
f 107/163/28 113/157/28 108/164/28
f 106/165/24 107/166/24 136/167/24
f 147/168/1 134/128/1 135/127/1
f 114/169/32 141/155/32 110/170/32
f 109/171/21 106/172/21 136/173/21
f 146/133/2 134/135/2 132/143/2
f 124/144/37 117/152/37 111/159/37
f 109/171/22 111/159/22 106/172/22
f 147/174/3 135/130/3 130/138/3
f 118/156/42 113/157/42 139/175/42
f 111/159/23 138/158/23 106/172/23
f 147/176/4 130/177/4 128/139/4
f 123/178/47 141/155/47 114/169/47
f 106/165/25 112/179/25 107/166/25
f 147/180/5 128/149/5 131/181/5
f 112/179/26 139/175/26 107/166/26
f 113/157/29 140/182/29 108/164/29
f 143/141/9 127/140/9 119/183/9
f 108/184/31 114/169/31 110/170/31
f 110/160/34 115/154/34 109/161/34
f 146/133/6 132/143/6 125/142/6
f 124/144/36 111/159/36 137/150/36
f 116/147/39 112/179/39 138/158/39
f 145/134/7 133/129/7 123/178/7
f 119/183/41 139/175/41 112/179/41
f 121/151/44 140/182/44 113/157/44
f 144/148/8 129/132/8 121/151/8
f 120/185/46 123/178/46 114/169/46
f 122/153/49 125/142/49 115/154/49
f 142/186/10 126/146/10 117/152/10
f 107/163/27 108/164/27 136/187/27
f 115/154/35 137/150/35 109/161/35
f 146/133/11 125/142/11 122/153/11
f 127/140/56 144/148/56 118/156/56
f 116/147/40 119/183/40 112/179/40
f 145/134/12 123/178/12 120/185/12
f 123/178/61 133/129/61 122/153/61
f 120/185/45 114/169/45 140/188/45
f 144/148/13 121/151/13 118/156/13
f 131/181/66 126/146/66 142/186/66
f 125/142/50 137/150/50 115/154/50
f 140/188/17 114/169/17 108/184/17
f 130/177/71 144/148/71 127/140/71
f 108/184/30 110/170/30 136/189/30
f 141/155/16 115/154/16 110/160/16
f 117/152/51 116/147/51 138/158/51
f 119/183/54 118/156/54 139/175/54
f 142/186/15 117/152/15 124/144/15
f 121/151/57 120/145/57 140/182/57
f 123/178/60 122/153/60 141/155/60
f 143/141/14 119/183/14 116/147/14
f 133/129/62 146/133/62 122/153/62
f 132/143/65 142/186/65 124/144/65
f 137/150/20 111/159/20 109/171/20
f 131/181/67 128/149/67 126/146/67
f 119/183/55 127/140/55 118/156/55
f 139/175/18 113/157/18 107/163/18
f 132/143/76 134/135/76 131/137/76
f 128/139/70 130/177/70 127/140/70
f 138/158/19 112/179/19 106/165/19
f 132/143/75 131/137/75 142/186/75
usemtl Wood
f 57/190/81 2/191/81 4/192/81 58/193/81
f 58/193/82 4/192/82 6/194/82 59/195/82
f 59/195/83 6/194/83 8/196/83 60/197/83
f 60/197/84 8/196/84 10/198/84 61/199/84
f 61/199/85 10/198/85 12/200/85 62/201/85
f 62/201/86 12/200/86 14/202/86 63/203/86
f 63/203/87 14/202/87 2/204/87 57/205/87
f 1/206/88 3/207/88 5/208/88 7/209/88 9/210/88 11/211/88 13/212/88
f 4/192/89 2/204/89 14/202/89 12/200/89 10/198/89 8/196/89 6/194/89
f 13/213/90 63/203/90 57/205/90 1/214/90
f 11/215/91 62/201/91 63/203/91 13/213/91
f 9/216/92 61/199/92 62/201/92 11/215/92
f 7/217/93 60/197/93 61/199/93 9/216/93
f 5/218/94 59/195/94 60/197/94 7/217/94
f 3/219/95 58/193/95 59/195/95 5/218/95
f 1/220/96 57/190/96 58/193/96 3/219/96
